<svg width="826" height="813" viewBox="0 0 826 813" fill="none" xmlns="http://www.w3.org/2000/svg">
<path d="M174.582 172.449C164.906 176.366 154.329 178.523 143.248 178.523C132.167 178.523 121.59 176.366 111.913 172.449M157.174 147.188V140.225C157.174 136.379 154.057 133.262 150.211 133.262H136.285C132.439 133.262 129.321 136.379 129.321 140.225V147.188M143.248 168.078H143.283M118.876 195.931H167.619C171.465 195.931 174.582 192.813 174.582 188.967V154.151C174.582 150.306 171.465 147.188 167.619 147.188H118.876C115.031 147.188 111.913 150.306 111.913 154.151V188.967C111.913 192.813 115.031 195.931 118.876 195.931Z" stroke="#E5E7EB" stroke-width="2" stroke-linecap="round" stroke-linejoin="round"/>
<path d="M414.813 22.7301V67.9911M414.813 22.7301C410.747 20.0287 405.227 18.3684 399.146 18.3684C393.066 18.3684 387.545 20.0287 383.479 22.7301V67.9911C387.545 65.2896 393.066 63.6294 399.146 63.6294C405.227 63.6294 410.747 65.2896 414.813 67.9911M414.813 22.7301C418.88 20.0287 424.4 18.3684 430.481 18.3684C436.561 18.3684 442.082 20.0287 446.148 22.7301V67.9911C442.082 65.2896 436.561 63.6294 430.481 63.6294C424.4 63.6294 418.88 65.2896 414.813 67.9911" stroke="#E5E7EB" stroke-width="2" stroke-linecap="round" stroke-linejoin="round"/>
<path d="M700.305 657.985C699.753 657.985 699.305 658.432 699.305 658.985C699.305 659.537 699.753 659.985 700.305 659.985V657.985ZM710.75 659.985C711.302 659.985 711.75 659.537 711.75 658.985C711.75 658.432 711.302 657.985 710.75 657.985V659.985ZM700.305 671.911C699.753 671.911 699.305 672.359 699.305 672.911C699.305 673.463 699.753 673.911 700.305 673.911V671.911ZM710.75 673.911C711.302 673.911 711.75 673.463 711.75 672.911C711.75 672.359 711.302 671.911 710.75 671.911V673.911ZM689.86 657.985C689.308 657.985 688.86 658.432 688.86 658.985C688.86 659.537 689.308 659.985 689.86 659.985V657.985ZM689.895 659.985C690.448 659.985 690.895 659.537 690.895 658.985C690.895 658.432 690.448 657.985 689.895 657.985V659.985ZM689.86 671.911C689.308 671.911 688.86 672.359 688.86 672.911C688.86 673.463 689.308 673.911 689.86 673.911V671.911ZM689.895 673.911C690.448 673.911 690.895 673.463 690.895 672.911C690.895 672.359 690.448 671.911 689.895 671.911V673.911ZM723.677 641.577V683.356H725.677V641.577H723.677ZM717.713 689.319H682.897V691.319H717.713V689.319ZM676.934 683.356V641.577H674.934V683.356H676.934ZM682.897 635.613H689.86V633.613H682.897V635.613ZM710.75 635.613H717.713V633.613H710.75V635.613ZM682.897 689.319C679.604 689.319 676.934 686.649 676.934 683.356H674.934C674.934 687.754 678.499 691.319 682.897 691.319V689.319ZM723.677 683.356C723.677 686.649 721.007 689.319 717.713 689.319V691.319C722.111 691.319 725.677 687.754 725.677 683.356H723.677ZM725.677 641.577C725.677 637.179 722.111 633.613 717.713 633.613V635.613C721.007 635.613 723.677 638.283 723.677 641.577H725.677ZM676.934 641.577C676.934 638.283 679.604 635.613 682.897 635.613V633.613C678.499 633.613 674.934 637.179 674.934 641.577H676.934ZM700.305 659.985H710.75V657.985H700.305V659.985ZM700.305 673.911H710.75V671.911H700.305V673.911ZM696.824 628.65H703.787V626.65H696.824V628.65ZM703.787 640.577H696.824V642.577H703.787V640.577ZM696.824 640.577C693.53 640.577 690.86 637.907 690.86 634.613H688.86C688.86 639.011 692.426 642.577 696.824 642.577V640.577ZM709.75 634.613C709.75 637.907 707.08 640.577 703.787 640.577V642.577C708.185 642.577 711.75 639.011 711.75 634.613H709.75ZM703.787 628.65C707.08 628.65 709.75 631.32 709.75 634.613H711.75C711.75 630.215 708.185 626.65 703.787 626.65V628.65ZM696.824 626.65C692.426 626.65 688.86 630.215 688.86 634.613H690.86C690.86 631.32 693.53 628.65 696.824 628.65V626.65ZM689.86 659.985H689.895V657.985H689.86V659.985ZM689.86 673.911H689.895V671.911H689.86V673.911Z" fill="#E5E7EB"/>
<path d="M136.285 700.764L150.211 645.058M164.137 658.985L178.064 672.911L164.137 686.838M122.358 686.838L108.432 672.911L122.358 658.985" stroke="#E5E7EB" stroke-width="2" stroke-linecap="round" stroke-linejoin="round"/>
<path d="M449.63 766.915H400.887M449.63 766.915C453.475 766.915 456.593 770.032 456.593 773.878V794.768C456.593 798.613 453.475 801.731 449.63 801.731H400.887C397.041 801.731 393.924 798.613 393.924 794.768V773.878C393.924 770.032 397.041 766.915 400.887 766.915M449.63 766.915V759.951C449.63 756.106 446.512 752.988 442.666 752.988M400.887 766.915V759.951C400.887 756.106 404.005 752.988 407.85 752.988M407.85 752.988V746.025C407.85 742.179 410.968 739.062 414.814 739.062H435.703C439.549 739.062 442.666 742.179 442.666 746.025V752.988M407.85 752.988H442.666" stroke="#E5E7EB" stroke-width="2" stroke-linecap="round" stroke-linejoin="round"/>
<path d="M22.4898 409.757L29.031 411.509C32.7457 412.505 34.9501 416.323 33.9548 420.038L33.0536 423.401C32.0583 427.115 34.2627 430.933 37.9774 431.929C41.692 432.924 43.8965 436.742 42.9011 440.457L40.2473 450.361M45.4858 390.455L44.076 395.716C42.8319 400.36 45.5874 405.132 50.2307 406.377L51.9122 406.827C55.6268 407.822 57.8313 411.641 56.8359 415.355C55.8406 419.07 58.045 422.888 61.7597 423.883C65.4743 424.879 69.2925 422.674 70.2879 418.96C71.2832 415.245 75.1014 413.041 78.816 414.036L82.3959 414.995M54.1112 452.428L56.353 444.061C57.3484 440.347 61.1666 438.142 64.8812 439.138L75.187 441.899M81.9376 429.29C77.4585 446.006 60.2767 455.926 43.5608 451.447C26.8449 446.968 16.9249 429.786 21.404 413.07C25.883 396.354 43.0648 386.434 59.7807 390.913C76.4966 395.392 86.4166 412.574 81.9376 429.29Z" stroke="#E5E7EB" stroke-width="2" stroke-linecap="round" stroke-linejoin="round"/>
<path d="M780.382 397.864H762.974C759.129 397.864 756.011 400.982 756.011 404.827V443.125C756.011 446.971 759.129 450.088 762.974 450.088H801.272C805.118 450.088 808.235 446.971 808.235 443.125V425.717M803.311 392.94C806.031 390.221 810.44 390.221 813.159 392.94C815.878 395.66 815.878 400.068 813.159 402.788L783.267 432.68H773.419L773.419 422.833L803.311 392.94Z" stroke="#E5E7EB" stroke-width="2" stroke-linecap="round" stroke-linejoin="round"/>
<path d="M651.563 136.743H658.526L659.919 143.706M665.489 171.559H700.305L714.232 143.706H659.919M665.489 171.559L659.919 143.706M665.489 171.559L657.506 179.542C655.313 181.736 656.866 185.486 659.968 185.486H700.305M700.305 185.486C696.46 185.486 693.342 188.603 693.342 192.449C693.342 196.295 696.46 199.412 700.305 199.412C704.151 199.412 707.269 196.295 707.269 192.449C707.269 188.603 704.151 185.486 700.305 185.486ZM672.452 192.449C672.452 196.295 669.335 199.412 665.489 199.412C661.644 199.412 658.526 196.295 658.526 192.449C658.526 188.603 661.644 185.486 665.489 185.486C669.335 185.486 672.452 188.603 672.452 192.449Z" stroke="#E5E7EB" stroke-width="2" stroke-linecap="round" stroke-linejoin="round"/>
</svg>
