<svg width="200" height="19" viewBox="0 0 200 19" fill="none" xmlns="http://www.w3.org/2000/svg">
<path d="M54.4659 0.0268364V3.05932H46.7029V7.863H52.6519V10.8418H46.7029V18.7585H42.9681V0.0268364H54.4659Z" fill="#374151"/>
<path d="M63.6768 19C62.254 19 60.9735 18.6869 59.8353 18.0607C58.697 17.4167 57.7989 16.5132 57.1409 15.3503C56.5006 14.1874 56.1805 12.8456 56.1805 11.3249C56.1805 9.80414 56.5095 8.46234 57.1675 7.29944C57.8434 6.13654 58.7593 5.242 59.9153 4.61582C61.0713 3.97175 62.3607 3.64972 63.7835 3.64972C65.2063 3.64972 66.4957 3.97175 67.6517 4.61582C68.8077 5.242 69.7147 6.13654 70.3728 7.29944C71.0486 8.46234 71.3865 9.80414 71.3865 11.3249C71.3865 12.8456 71.0397 14.1874 70.3461 15.3503C69.6702 16.5132 68.7454 17.4167 67.5716 18.0607C66.4156 18.6869 65.1173 19 63.6768 19ZM63.6768 15.726C64.3526 15.726 64.984 15.565 65.5709 15.2429C66.1755 14.903 66.6557 14.4021 67.0114 13.7401C67.3671 13.0782 67.545 12.2731 67.545 11.3249C67.545 9.91149 67.1715 8.8291 66.4245 8.07768C65.6954 7.30838 64.7972 6.92373 63.7301 6.92373C62.663 6.92373 61.7649 7.30838 61.0357 8.07768C60.3243 8.8291 59.9686 9.91149 59.9686 11.3249C59.9686 12.7382 60.3155 13.8296 61.0091 14.5989C61.7205 15.3503 62.6097 15.726 63.6768 15.726Z" fill="#374151"/>
<path d="M73.1658 11.3249C73.1658 9.78625 73.477 8.44445 74.0995 7.29944C74.722 6.13654 75.5845 5.242 76.6872 4.61582C77.7898 3.97175 79.0526 3.64972 80.4753 3.64972C82.3072 3.64972 83.8189 4.11488 85.0105 5.0452C86.2198 5.95763 87.0291 7.24576 87.4381 8.90961H83.4098C83.1964 8.26554 82.8318 7.7646 82.3161 7.40678C81.8181 7.03107 81.1956 6.84322 80.4487 6.84322C79.3816 6.84322 78.5368 7.23682 77.9143 8.02401C77.2919 8.79332 76.9806 9.8936 76.9806 11.3249C76.9806 12.7382 77.2919 13.8385 77.9143 14.6257C78.5368 15.395 79.3816 15.7797 80.4487 15.7797C81.9604 15.7797 82.9474 15.0998 83.4098 13.7401H87.4381C87.0291 15.3503 86.2198 16.6295 85.0105 17.5777C83.8011 18.5259 82.2894 19 80.4753 19C79.0526 19 77.7898 18.6869 76.6872 18.0607C75.5845 17.4167 74.722 16.5221 74.0995 15.3771C73.477 14.2142 73.1658 12.8635 73.1658 11.3249Z" fill="#374151"/>
<path d="M104.126 3.89124V18.7585H100.365V16.8799C99.8847 17.524 99.2533 18.0339 98.4708 18.4096C97.706 18.7674 96.8701 18.9463 95.9631 18.9463C94.8071 18.9463 93.7845 18.7048 92.8952 18.2218C92.006 17.7208 91.3035 16.9962 90.7878 16.048C90.2898 15.0819 90.0408 13.9369 90.0408 12.613V3.89124H93.7756V12.0763C93.7756 13.2571 94.0691 14.1695 94.656 14.8136C95.2429 15.4397 96.0432 15.7528 97.0569 15.7528C98.0884 15.7528 98.8976 15.4397 99.4845 14.8136C100.071 14.1695 100.365 13.2571 100.365 12.0763V3.89124H104.126Z" fill="#374151"/>
<path d="M113.467 19C112.258 19 111.173 18.7853 110.212 18.3559C109.252 17.9087 108.487 17.3093 107.918 16.5579C107.367 15.8065 107.064 14.9746 107.011 14.0621H110.773C110.844 14.6347 111.119 15.1088 111.6 15.4845C112.098 15.8602 112.711 16.048 113.44 16.048C114.152 16.048 114.703 15.9049 115.094 15.6186C115.503 15.3324 115.708 14.9656 115.708 14.5184C115.708 14.0353 115.459 13.6775 114.961 13.4449C114.481 13.1944 113.707 12.9261 112.64 12.6398C111.537 12.3715 110.63 12.0942 109.919 11.8079C109.225 11.5217 108.621 11.0833 108.105 10.4929C107.607 9.90254 107.358 9.1064 107.358 8.10452C107.358 7.28155 107.589 6.53013 108.052 5.85028C108.532 5.17043 109.208 4.63371 110.079 4.24011C110.968 3.84652 112.009 3.64972 113.2 3.64972C114.961 3.64972 116.366 4.09699 117.415 4.99153C118.465 5.86817 119.043 7.05791 119.149 8.56074H115.574C115.521 7.97034 115.272 7.50518 114.828 7.16525C114.401 6.80744 113.823 6.62853 113.093 6.62853C112.418 6.62853 111.893 6.75377 111.52 7.00424C111.164 7.25471 110.986 7.60358 110.986 8.05085C110.986 8.55179 111.235 8.93644 111.733 9.2048C112.231 9.45527 113.005 9.71469 114.054 9.98305C115.121 10.2514 116.001 10.5287 116.695 10.815C117.389 11.1012 117.984 11.5485 118.482 12.1568C118.998 12.7472 119.265 13.5344 119.283 14.5184C119.283 15.3771 119.043 16.1464 118.562 16.8263C118.1 17.5061 117.424 18.0428 116.535 18.4364C115.663 18.8121 114.641 19 113.467 19Z" fill="#374151"/>
<path d="M141.019 18.7585H137.284L128.827 5.90396V18.7585H125.092V0H128.827L137.284 12.8814V0H141.019V18.7585Z" fill="#374151"/>
<path d="M151.272 19C149.849 19 148.569 18.6869 147.431 18.0607C146.292 17.4167 145.394 16.5132 144.736 15.3503C144.096 14.1874 143.776 12.8456 143.776 11.3249C143.776 9.80414 144.105 8.46234 144.763 7.29944C145.439 6.13654 146.355 5.242 147.511 4.61582C148.667 3.97175 149.956 3.64972 151.379 3.64972C152.802 3.64972 154.091 3.97175 155.247 4.61582C156.403 5.242 157.31 6.13654 157.968 7.29944C158.644 8.46234 158.982 9.80414 158.982 11.3249C158.982 12.8456 158.635 14.1874 157.941 15.3503C157.266 16.5132 156.341 17.4167 155.167 18.0607C154.011 18.6869 152.713 19 151.272 19ZM151.272 15.726C151.948 15.726 152.579 15.565 153.166 15.2429C153.771 14.903 154.251 14.4021 154.607 13.7401C154.963 13.0782 155.14 12.2731 155.14 11.3249C155.14 9.91149 154.767 8.8291 154.02 8.07768C153.291 7.30838 152.393 6.92373 151.326 6.92373C150.258 6.92373 149.36 7.30838 148.631 8.07768C147.92 8.8291 147.564 9.91149 147.564 11.3249C147.564 12.7382 147.911 13.8296 148.604 14.5989C149.316 15.3503 150.205 15.726 151.272 15.726Z" fill="#374151"/>
<path d="M166.07 6.9774V14.1695C166.07 14.6704 166.186 15.0372 166.417 15.2698C166.666 15.4845 167.075 15.5918 167.644 15.5918H169.378V18.7585H167.03C163.882 18.7585 162.308 17.2199 162.308 14.1427V6.9774H160.548V3.89124H162.308V0.214688H166.07V3.89124H169.378V6.9774H166.07Z" fill="#374151"/>
<path d="M185.803 11.0028C185.803 11.5395 185.767 12.0226 185.696 12.452H174.892C174.981 13.5254 175.354 14.3663 176.012 14.9746C176.671 15.5829 177.48 15.887 178.44 15.887C179.827 15.887 180.814 15.2877 181.401 14.089H185.43C185.003 15.5202 184.184 16.701 182.975 17.6314C181.766 18.5438 180.281 19 178.52 19C177.097 19 175.817 18.6869 174.679 18.0607C173.558 17.4167 172.678 16.5132 172.038 15.3503C171.415 14.1874 171.104 12.8456 171.104 11.3249C171.104 9.78625 171.415 8.4355 172.038 7.2726C172.66 6.1097 173.532 5.21516 174.652 4.58898C175.772 3.96281 177.062 3.64972 178.52 3.64972C179.925 3.64972 181.179 3.95386 182.282 4.56215C183.402 5.17043 184.264 6.03814 184.869 7.16525C185.491 8.27448 185.803 9.55367 185.803 11.0028ZM181.935 9.92938C181.917 8.96328 181.57 8.19397 180.894 7.62147C180.219 7.03107 179.392 6.73588 178.413 6.73588C177.489 6.73588 176.706 7.02213 176.066 7.59463C175.443 8.14925 175.061 8.9275 174.919 9.92938H181.935Z" fill="#374151"/>
<path d="M194.185 19C192.975 19 191.89 18.7853 190.93 18.3559C189.969 17.9087 189.205 17.3093 188.635 16.5579C188.084 15.8065 187.782 14.9746 187.729 14.0621H191.49C191.561 14.6347 191.837 15.1088 192.317 15.4845C192.815 15.8602 193.429 16.048 194.158 16.048C194.869 16.048 195.421 15.9049 195.812 15.6186C196.221 15.3324 196.425 14.9656 196.425 14.5184C196.425 14.0353 196.176 13.6775 195.678 13.4449C195.198 13.1944 194.425 12.9261 193.357 12.6398C192.255 12.3715 191.348 12.0942 190.637 11.8079C189.943 11.5217 189.338 11.0833 188.822 10.4929C188.324 9.90254 188.076 9.1064 188.076 8.10452C188.076 7.28155 188.306 6.53013 188.769 5.85028C189.249 5.17043 189.925 4.63371 190.796 4.24011C191.686 3.84652 192.726 3.64972 193.918 3.64972C195.678 3.64972 197.084 4.09699 198.133 4.99153C199.182 5.86817 199.76 7.05791 199.867 8.56074H196.292C196.239 7.97034 195.99 7.50518 195.545 7.16525C195.118 6.80744 194.54 6.62853 193.811 6.62853C193.135 6.62853 192.611 6.75377 192.237 7.00424C191.882 7.25471 191.703 7.60358 191.703 8.05085C191.703 8.55179 191.953 8.93644 192.451 9.2048C192.949 9.45527 193.722 9.71469 194.772 9.98305C195.839 10.2514 196.719 10.5287 197.412 10.815C198.106 11.1012 198.702 11.5485 199.2 12.1568C199.715 12.7472 199.982 13.5344 200 14.5184C200 15.3771 199.76 16.1464 199.28 16.8263C198.818 17.5061 198.141 18.0428 197.252 18.4364C196.381 18.8121 195.358 19 194.185 19Z" fill="#374151"/>
<path fill-rule="evenodd" clip-rule="evenodd" d="M35.3392 11.5218C36.2601 13.7768 36.7337 16.1927 36.7337 18.6319H33.4629C33.4629 16.6211 33.0725 14.6299 32.3139 12.7721C31.5552 10.9143 30.4431 9.22622 29.0415 7.80432C27.6396 6.38242 25.9754 5.25449 24.1439 4.48497C22.3123 3.71544 20.3493 3.31938 18.3669 3.31938C16.3844 3.31938 14.4214 3.71544 12.5899 4.48497C10.7583 5.25449 9.09414 6.38242 7.69234 7.80432C6.29054 9.22622 5.17857 10.9143 4.41994 12.7721C3.66128 14.6299 3.27082 16.6211 3.27082 18.6319H0C2.11978e-07 16.1927 0.473607 13.7768 1.39444 11.5218C2.3153 9.26678 3.66572 7.21605 5.36995 5.48741C7.07423 3.75868 9.09895 2.38593 11.3293 1.44885C13.5597 0.511753 15.9511 0.0290725 18.3669 0.0290764C20.7826 0.0290764 23.1741 0.511753 25.4044 1.44885C27.6348 2.38593 29.6595 3.75868 31.3638 5.48741C33.068 7.21605 34.4183 9.2668 35.3392 11.5218Z" fill="#374151"/>
<path fill-rule="evenodd" clip-rule="evenodd" d="M30.2033 13.7937C30.8591 15.3234 31.1984 16.9679 31.1984 18.6319H27.9277C27.9277 17.4188 27.6804 16.2175 27.1999 15.0967C26.7194 13.9758 26.0152 12.9574 25.1274 12.0996C24.2396 11.2417 23.1856 10.5613 22.0256 10.097C20.8656 9.63273 19.6224 9.39377 18.3669 9.39377C17.1113 9.39377 15.8681 9.63273 14.7081 10.097C13.5481 10.5613 12.4941 11.2417 11.6063 12.0996C10.7185 12.9574 10.0143 13.9758 9.53379 15.0967C9.05332 16.2175 8.80603 17.4188 8.80603 18.6319H5.53521C5.53521 16.9679 5.87462 15.3234 6.53035 13.7937C7.18597 12.2644 8.14316 10.8836 9.34055 9.7266C10.5377 8.56988 11.9518 7.65898 13.4989 7.03977C15.0459 6.42064 16.6997 6.10347 18.3669 6.10347C20.0341 6.10347 21.6878 6.42064 23.2348 7.03977C24.7819 7.65898 26.196 8.56988 27.3932 9.72663C28.5904 10.8836 29.5478 12.2644 30.2033 13.7937Z" fill="#374151"/>
<path fill-rule="evenodd" clip-rule="evenodd" d="M24.2455 16.298C24.5667 17.0781 24.732 17.9141 24.732 18.7585H21.27C21.27 18.3715 21.1942 17.9883 21.047 17.6308C20.8998 17.2732 20.684 16.9484 20.412 16.6747C20.1399 16.4011 19.817 16.184 19.4616 16.0359C19.1062 15.8878 18.7252 15.8116 18.3406 15.8116C17.9559 15.8116 17.575 15.8878 17.2195 16.0359C16.8641 16.184 16.5412 16.4011 16.2692 16.6747C15.9971 16.9484 15.7814 17.2732 15.6342 17.6308C15.4869 17.9883 15.4112 18.3715 15.4112 18.7585H11.9492C11.9492 17.9141 12.1145 17.0781 12.4357 16.298C12.7569 15.518 13.2277 14.8092 13.8211 14.2121C14.4147 13.6151 15.1192 13.1415 15.8947 12.8184C16.6701 12.4953 17.5012 12.329 18.3406 12.329C19.1799 12.329 20.011 12.4953 20.7864 12.8184C21.5619 13.1415 22.2665 13.6151 22.86 14.2121C23.4535 14.8092 23.9243 15.518 24.2455 16.298Z" fill="#374151"/>
</svg>
