<svg width="154" height="14" viewBox="0 0 154 14" fill="none" xmlns="http://www.w3.org/2000/svg">
<path d="M41.9388 0.0197742V2.25424H35.9612V5.79379H40.5419V7.9887H35.9612V13.822H33.0854V0.0197742H41.9388Z" fill="#374151"/>
<path d="M49.0311 14C47.9356 14 46.9496 13.7693 46.0732 13.3079C45.1967 12.8333 44.5052 12.1676 43.9985 11.3107C43.5055 10.4539 43.259 9.46516 43.259 8.34463C43.259 7.22411 43.5123 6.23541 44.019 5.37853C44.5394 4.52166 45.2446 3.86252 46.1348 3.40113C47.0249 2.92655 48.0177 2.68927 49.1133 2.68927C50.2088 2.68927 51.2017 2.92655 52.0918 3.40113C52.9819 3.86252 53.6803 4.52166 54.187 5.37853C54.7074 6.23541 54.9676 7.22411 54.9676 8.34463C54.9676 9.46516 54.7005 10.4539 54.1665 11.3107C53.6461 12.1676 52.934 12.8333 52.0302 13.3079C51.14 13.7693 50.1404 14 49.0311 14ZM49.0311 11.5876C49.5515 11.5876 50.0377 11.4689 50.4896 11.2316C50.9552 10.9812 51.3249 10.6121 51.5988 10.1243C51.8727 9.63653 52.0096 9.04331 52.0096 8.34463C52.0096 7.3032 51.722 6.50565 51.1469 5.95198C50.5854 5.38512 49.8939 5.1017 49.0722 5.1017C48.2505 5.1017 47.559 5.38512 46.9975 5.95198C46.4497 6.50565 46.1759 7.3032 46.1759 8.34463C46.1759 9.38606 46.4429 10.1902 46.977 10.7571C47.5247 11.3107 48.2095 11.5876 49.0311 11.5876Z" fill="#374151"/>
<path d="M56.3377 8.34463C56.3377 7.21092 56.5773 6.22222 57.0566 5.37853C57.5359 4.52166 58.2001 3.86252 59.0491 3.40113C59.8982 2.92655 60.8705 2.68927 61.966 2.68927C63.3765 2.68927 64.5405 3.03202 65.4581 3.71751C66.3893 4.38983 67.0124 5.33898 67.3273 6.56497H64.2256C64.0612 6.0904 63.7805 5.72128 63.3834 5.45763C62.9999 5.18079 62.5206 5.04237 61.9455 5.04237C61.1238 5.04237 60.4733 5.33239 59.994 5.91243C59.5147 6.47929 59.2751 7.29002 59.2751 8.34463C59.2751 9.38606 59.5147 10.1968 59.994 10.7768C60.4733 11.3437 61.1238 11.6271 61.9455 11.6271C63.1095 11.6271 63.8695 11.1262 64.2256 10.1243H67.3273C67.0124 11.3107 66.3893 12.2533 65.4581 12.952C64.5268 13.6507 63.3628 14 61.966 14C60.8705 14 59.8982 13.7693 59.0491 13.3079C58.2001 12.8333 57.5359 12.1742 57.0566 11.3305C56.5773 10.4736 56.3377 9.47834 56.3377 8.34463Z" fill="#374151"/>
<path d="M80.1773 2.86723V13.822H77.2809V12.4379C76.9112 12.9124 76.425 13.2881 75.8225 13.565C75.2336 13.8286 74.59 13.9605 73.8916 13.9605C73.0015 13.9605 72.2141 13.7825 71.5293 13.4266C70.8446 13.0574 70.3037 12.5235 69.9066 11.8249C69.5231 11.113 69.3314 10.2693 69.3314 9.29379V2.86723H72.2072V8.89831C72.2072 9.76836 72.4332 10.4407 72.8851 10.9153C73.337 11.3766 73.9532 11.6073 74.7338 11.6073C75.5281 11.6073 76.1512 11.3766 76.6031 10.9153C77.055 10.4407 77.2809 9.76836 77.2809 8.89831V2.86723H80.1773Z" fill="#374151"/>
<path d="M87.3696 14C86.4384 14 85.603 13.8418 84.8635 13.5254C84.124 13.1959 83.5352 12.7542 83.0969 12.2006C82.6724 11.6469 82.4396 11.0339 82.3985 10.3616H85.2949C85.3497 10.7834 85.5619 11.1328 85.9317 11.4096C86.3151 11.6864 86.7876 11.8249 87.349 11.8249C87.8968 11.8249 88.3213 11.7194 88.6226 11.5085C88.9376 11.2976 89.095 11.0273 89.095 10.6977C89.095 10.3418 88.9033 10.0782 88.5199 9.90678C88.1502 9.72222 87.5544 9.52448 86.7328 9.31356C85.8837 9.11582 85.1853 8.91149 84.6376 8.70057C84.1035 8.48964 83.6379 8.16667 83.2407 7.73164C82.8573 7.29661 82.6656 6.70998 82.6656 5.97175C82.6656 5.36535 82.8436 4.81168 83.1997 4.31073C83.5694 3.80979 84.0898 3.41431 84.7608 3.12429C85.4455 2.83428 86.2466 2.68927 87.1642 2.68927C88.5199 2.68927 89.6017 3.01883 90.4097 3.67797C91.2177 4.32392 91.6627 5.20057 91.7449 6.30791H88.9923C88.9513 5.87288 88.7595 5.53013 88.4172 5.27966C88.0885 5.01601 87.6435 4.88418 87.082 4.88418C86.5616 4.88418 86.1576 4.97646 85.87 5.16102C85.5962 5.34557 85.4592 5.60264 85.4592 5.9322C85.4592 6.30132 85.6509 6.58475 86.0344 6.78249C86.4178 6.96704 87.0135 7.15819 87.8215 7.35593C88.6431 7.55367 89.321 7.758 89.8551 7.96893C90.3892 8.17985 90.8479 8.50942 91.2314 8.95763C91.6285 9.39266 91.8339 9.97269 91.8476 10.6977C91.8476 11.3305 91.6627 11.8974 91.293 12.3983C90.9369 12.8992 90.4165 13.2947 89.7318 13.5847C89.0608 13.8616 88.2734 14 87.3696 14Z" fill="#374151"/>
<path d="M108.584 13.822H105.709L99.1969 4.35028V13.822H96.3211V0H99.1969L105.709 9.49153V0H108.584V13.822Z" fill="#374151"/>
<path d="M116.48 14C115.384 14 114.398 13.7693 113.522 13.3079C112.645 12.8333 111.954 12.1676 111.447 11.3107C110.954 10.4539 110.707 9.46516 110.707 8.34463C110.707 7.22411 110.961 6.23541 111.467 5.37853C111.988 4.52166 112.693 3.86252 113.583 3.40113C114.473 2.92655 115.466 2.68927 116.562 2.68927C117.657 2.68927 118.65 2.92655 119.54 3.40113C120.43 3.86252 121.129 4.52166 121.635 5.37853C122.156 6.23541 122.416 7.22411 122.416 8.34463C122.416 9.46516 122.149 10.4539 121.615 11.3107C121.095 12.1676 120.382 12.8333 119.479 13.3079C118.588 13.7693 117.589 14 116.48 14ZM116.48 11.5876C117 11.5876 117.486 11.4689 117.938 11.2316C118.404 10.9812 118.773 10.6121 119.047 10.1243C119.321 9.63653 119.458 9.04331 119.458 8.34463C119.458 7.3032 119.17 6.50565 118.595 5.95198C118.034 5.38512 117.342 5.1017 116.521 5.1017C115.699 5.1017 115.007 5.38512 114.446 5.95198C113.898 6.50565 113.624 7.3032 113.624 8.34463C113.624 9.38606 113.891 10.1902 114.425 10.7571C114.973 11.3107 115.658 11.5876 116.48 11.5876Z" fill="#374151"/>
<path d="M127.874 5.14124V10.4407C127.874 10.8098 127.963 11.08 128.141 11.2514C128.333 11.4096 128.648 11.4887 129.086 11.4887H130.421V13.822H128.613C126.189 13.822 124.978 12.6883 124.978 10.4209V5.14124H123.622V2.86723H124.978V0.158191H127.874V2.86723H130.421V5.14124H127.874Z" fill="#374151"/>
<path d="M143.068 8.10735C143.068 8.50283 143.041 8.85876 142.986 9.17514H134.667C134.735 9.9661 135.023 10.5857 135.53 11.0339C136.036 11.4821 136.659 11.7062 137.399 11.7062C138.467 11.7062 139.227 11.2646 139.679 10.3814H142.781C142.452 11.436 141.822 12.306 140.891 12.9915C139.96 13.6638 138.816 14 137.46 14C136.365 14 135.379 13.7693 134.503 13.3079C133.64 12.8333 132.962 12.1676 132.469 11.3107C131.99 10.4539 131.75 9.46516 131.75 8.34463C131.75 7.21092 131.99 6.21563 132.469 5.35876C132.948 4.50188 133.619 3.84275 134.482 3.38136C135.345 2.91996 136.338 2.68927 137.46 2.68927C138.542 2.68927 139.508 2.91337 140.357 3.36158C141.22 3.80979 141.884 4.44915 142.349 5.27966C142.828 6.09699 143.068 7.03955 143.068 8.10735ZM140.09 7.31638C140.076 6.60452 139.809 6.03767 139.289 5.61582C138.768 5.18079 138.132 4.96328 137.378 4.96328C136.666 4.96328 136.064 5.1742 135.571 5.59605C135.091 6.00471 134.797 6.57816 134.687 7.31638H140.09Z" fill="#374151"/>
<path d="M149.522 14C148.591 14 147.755 13.8418 147.016 13.5254C146.276 13.1959 145.688 12.7542 145.249 12.2006C144.825 11.6469 144.592 11.0339 144.551 10.3616H147.447C147.502 10.7834 147.714 11.1328 148.084 11.4096C148.467 11.6864 148.94 11.8249 149.502 11.8249C150.049 11.8249 150.474 11.7194 150.775 11.5085C151.09 11.2976 151.247 11.0273 151.247 10.6977C151.247 10.3418 151.056 10.0782 150.672 9.90678C150.303 9.72222 149.707 9.52448 148.885 9.31356C148.036 9.11582 147.338 8.91149 146.79 8.70057C146.256 8.48964 145.79 8.16667 145.393 7.73164C145.01 7.29661 144.818 6.70998 144.818 5.97175C144.818 5.36535 144.996 4.81168 145.352 4.31073C145.722 3.80979 146.242 3.41431 146.913 3.12429C147.598 2.83428 148.399 2.68927 149.317 2.68927C150.672 2.68927 151.754 3.01883 152.562 3.67797C153.37 4.32392 153.815 5.20057 153.897 6.30791H151.145C151.104 5.87288 150.912 5.53013 150.57 5.27966C150.241 5.01601 149.796 4.88418 149.235 4.88418C148.714 4.88418 148.31 4.97646 148.023 5.16102C147.749 5.34557 147.612 5.60264 147.612 5.9322C147.612 6.30132 147.804 6.58475 148.187 6.78249C148.57 6.96704 149.166 7.15819 149.974 7.35593C150.796 7.55367 151.473 7.758 152.007 7.96893C152.542 8.17985 153 8.50942 153.384 8.95763C153.781 9.39266 153.986 9.97269 154 10.6977C154 11.3305 153.815 11.8974 153.446 12.3983C153.09 12.8992 152.569 13.2947 151.884 13.5847C151.213 13.8616 150.426 14 149.522 14Z" fill="#374151"/>
<path fill-rule="evenodd" clip-rule="evenodd" d="M27.2112 8.48976C27.9203 10.1513 28.2849 11.9315 28.2849 13.7288H25.7664C25.7664 12.2471 25.4658 10.7799 24.8817 9.41101C24.2975 8.04209 23.4412 6.79826 22.3619 5.75055C21.2825 4.70284 20.001 3.87173 18.5908 3.30471C17.1805 2.73769 15.669 2.44586 14.1425 2.44586C12.616 2.44586 11.1045 2.73769 9.69419 3.30471C8.28389 3.87173 7.00249 4.70284 5.9231 5.75055C4.84371 6.79826 3.9875 8.04209 3.40335 9.41099C2.81918 10.7799 2.51853 12.2471 2.51853 13.7288H0C1.63223e-07 11.9315 0.364678 10.1513 1.07372 8.48976C1.78278 6.82815 2.82261 5.31709 4.13486 4.04335C5.44716 2.76956 7.00619 1.75805 8.72354 1.06757C10.4409 0.377081 12.2823 0.0214219 14.1425 0.0214247C16.0026 0.0214247 17.844 0.377081 19.5614 1.06757C21.2788 1.75805 22.8378 2.76956 24.1501 4.04335C25.4624 5.31709 26.5021 6.82817 27.2112 8.48976Z" fill="#374151"/>
<path fill-rule="evenodd" clip-rule="evenodd" d="M23.2565 10.1638C23.7615 11.2909 24.0228 12.5026 24.0228 13.7288H21.5043C21.5043 12.8349 21.3139 11.9497 20.9439 11.1238C20.574 10.298 20.0317 9.54757 19.3481 8.91546C18.6645 8.28337 17.8529 7.78198 16.9597 7.43989C16.0665 7.0978 15.1093 6.92173 14.1425 6.92173C13.1757 6.92173 12.2184 7.0978 11.3252 7.43989C10.432 7.78198 9.62047 8.28337 8.93687 8.91546C8.25325 9.54757 7.711 10.298 7.34102 11.1238C6.97106 11.9497 6.78064 12.8349 6.78064 13.7288H4.26211C4.26211 12.5026 4.52346 11.2909 5.02837 10.1638C5.5332 9.03691 6.27023 8.01949 7.19222 7.16697C8.11402 6.31465 9.20288 5.64346 10.3942 5.1872C11.5853 4.73099 12.8587 4.49729 14.1425 4.49729C15.4262 4.49729 16.6996 4.73099 17.8908 5.1872C19.0821 5.64346 20.1709 6.31465 21.0927 7.16699C22.0146 8.01949 22.7518 9.03691 23.2565 10.1638Z" fill="#374151"/>
<path fill-rule="evenodd" clip-rule="evenodd" d="M18.669 12.0091C18.9163 12.5839 19.0436 13.1999 19.0436 13.822H16.3779C16.3779 13.5369 16.3195 13.2545 16.2062 12.9911C16.0928 12.7276 15.9267 12.4883 15.7172 12.2866C15.5078 12.085 15.2591 11.9251 14.9854 11.816C14.7118 11.7068 14.4184 11.6507 14.1222 11.6507C13.826 11.6507 13.5327 11.7068 13.259 11.816C12.9854 11.9251 12.7367 12.085 12.5273 12.2866C12.3178 12.4883 12.1516 12.7276 12.0383 12.9911C11.9249 13.2545 11.8666 13.5369 11.8666 13.822H9.20085C9.20085 13.1999 9.32814 12.5839 9.57548 12.0091C9.82279 11.4343 10.1853 10.912 10.6423 10.4721C11.0993 10.0322 11.6418 9.68321 12.2389 9.44514C12.836 9.20705 13.476 9.08451 14.1222 9.08451C14.7685 9.08451 15.4085 9.20705 16.0056 9.44514C16.6027 9.68321 17.1452 10.0322 17.6022 10.4721C18.0592 10.912 18.4217 11.4343 18.669 12.0091Z" fill="#374151"/>
</svg>
