<svg width="1230" height="314" viewBox="0 0 1230 314" fill="none" xmlns="http://www.w3.org/2000/svg">
<rect x="-1.5" y="1.5" width="297" height="311" rx="14.5" transform="matrix(-1 0 0 1 297 0)" stroke="url(#paint0_linear_37_49)" stroke-width="3" stroke-dasharray="10 10"/>
<rect x="-1.5" y="1.5" width="283" height="311" rx="14.5" transform="matrix(-1 0 0 1 607 0)" stroke="url(#paint1_linear_37_49)" stroke-width="3" stroke-dasharray="10 10"/>
<rect x="-1.5" y="1.5" width="283" height="311" rx="14.5" transform="matrix(-1 0 0 1 917 0)" stroke="url(#paint2_linear_37_49)" stroke-width="3" stroke-dasharray="10 10"/>
<rect x="-1.5" y="1.5" width="283" height="311" rx="14.5" transform="matrix(-1 0 0 1 1227 0)" stroke="url(#paint3_linear_37_49)" stroke-width="3" stroke-dasharray="10 10"/>
<defs>
<linearGradient id="paint0_linear_37_49" x1="150" y1="0" x2="150" y2="314" gradientUnits="userSpaceOnUse">
<stop stop-color="#D8D8D8"/>
<stop offset="1" stop-color="#DBDBDB" stop-opacity="0"/>
</linearGradient>
<linearGradient id="paint1_linear_37_49" x1="143" y1="0" x2="143" y2="314" gradientUnits="userSpaceOnUse">
<stop stop-color="#D8D8D8"/>
<stop offset="1" stop-color="#DBDBDB" stop-opacity="0"/>
</linearGradient>
<linearGradient id="paint2_linear_37_49" x1="143" y1="0" x2="143" y2="314" gradientUnits="userSpaceOnUse">
<stop stop-color="#D8D8D8"/>
<stop offset="1" stop-color="#DBDBDB" stop-opacity="0"/>
</linearGradient>
<linearGradient id="paint3_linear_37_49" x1="143" y1="0" x2="143" y2="314" gradientUnits="userSpaceOnUse">
<stop stop-color="#D8D8D8"/>
<stop offset="1" stop-color="#DBDBDB" stop-opacity="0"/>
</linearGradient>
</defs>
</svg>
