<svg width="100" height="100" viewBox="0 0 100 100" fill="none" xmlns="http://www.w3.org/2000/svg">
<path fill-rule="evenodd" clip-rule="evenodd" d="M93.7437 55.3361C96.1082 61.0922 97.3243 67.259 97.3243 73.4852L88.9256 73.4852C88.9256 68.3523 87.923 63.2697 85.9749 58.5275C84.0269 53.7853 81.1716 49.4764 77.5721 45.8469C73.9725 42.2174 69.6993 39.3383 64.9963 37.374C60.2933 35.4098 55.2527 34.3988 50.1622 34.3988C45.0717 34.3988 40.0311 35.4098 35.3281 37.374C30.6251 39.3383 26.3518 42.2174 22.7523 45.8469C19.1528 49.4764 16.2975 53.7853 14.3494 58.5275C12.4014 63.2697 11.3987 68.3523 11.3987 73.4852L3.00001 73.4852C3.00001 67.259 4.21613 61.0921 6.58064 55.3361C8.94521 49.58 12.4128 44.3453 16.7889 39.9328C21.1651 35.5201 26.3642 32.0161 32.0912 29.6241C37.8183 27.2321 43.959 26 50.1622 26C56.3653 26 62.5061 27.2321 68.2332 29.6241C73.9602 32.0161 79.1593 35.5201 83.5355 39.9328C87.9115 44.3453 91.3791 49.58 93.7437 55.3361Z" fill="#FAFAFA"/>
<path fill-rule="evenodd" clip-rule="evenodd" d="M80.5558 61.1354C82.2396 65.04 83.1111 69.2375 83.1111 73.4852L74.7123 73.4852C74.7123 70.3885 74.0773 67.3221 72.8436 64.4611C71.6098 61.6002 69.8015 59.0006 67.5218 56.8109C65.2421 54.6212 62.5357 52.8842 59.5571 51.6991C56.5786 50.5141 53.3862 49.9041 50.1622 49.9041C46.9382 49.9041 43.7458 50.5141 40.7672 51.6991C37.7887 52.8842 35.0823 54.6212 32.8026 56.8109C30.5229 59.0006 28.7145 61.6002 27.4808 64.4611C26.247 67.3221 25.612 70.3885 25.612 73.4852L17.2133 73.4852C17.2133 69.2375 18.0848 65.04 19.7686 61.1354C21.452 57.2316 23.9099 53.707 26.9845 50.7537C30.0585 47.8011 33.6897 45.476 37.6624 43.8954C41.6347 42.3149 45.8812 41.5054 50.1622 41.5054C54.4432 41.5054 58.6897 42.3149 62.662 43.8954C66.6347 45.476 70.2658 47.8011 73.3398 50.7537C76.4145 53.707 78.8723 57.2316 80.5558 61.1354Z" fill="#FAFAFA"/>
<path fill-rule="evenodd" clip-rule="evenodd" d="M64.4872 67.8743C65.2664 69.7555 65.6675 71.7718 65.6675 73.808L57.2687 73.808C57.2687 72.8747 57.0849 71.9506 56.7278 71.0884C56.3706 70.2262 55.8472 69.4427 55.1873 68.7828C54.5273 68.1229 53.7439 67.5995 52.8817 67.2423C52.0195 66.8852 51.0954 66.7014 50.1621 66.7014C49.2289 66.7014 48.3047 66.8852 47.4425 67.2423C46.5803 67.5995 45.7969 68.1229 45.137 68.7828C44.4771 69.4427 43.9536 70.2262 43.5964 71.0884C43.2393 71.9506 43.0555 72.8747 43.0555 73.808L34.6567 73.808C34.6567 71.7718 35.0578 69.7555 35.837 67.8743C36.6162 65.9931 37.7584 64.2838 39.1982 62.844C40.638 61.4042 42.3473 60.2621 44.2285 59.4829C46.1097 58.7037 48.1259 58.3026 50.1621 58.3026C52.1983 58.3026 54.2146 58.7037 56.0958 59.4829C57.977 60.2621 59.6863 61.4042 61.1261 62.844C62.5659 64.2838 63.708 65.9931 64.4872 67.8743Z" fill="#FAFAFA"/>
</svg>
